<svg width="23" height="22" viewBox="0 0 23 22" fill="none" xmlns="http://www.w3.org/2000/svg">
<path d="M5.99772 13.1308L4.63104 19.0488C4.58872 19.228 4.60143 19.4158 4.6675 19.5877C4.73357 19.7596 4.84993 19.9075 5.00139 20.0122C5.15285 20.1169 5.33237 20.1735 5.5165 20.1746C5.70062 20.1757 5.8808 20.1212 6.03349 20.0183L11.0278 16.6888L16.0222 20.0183C16.1784 20.1221 16.3627 20.1755 16.5502 20.1714C16.7377 20.1673 16.9194 20.1058 17.0709 19.9953C17.2225 19.8849 17.3365 19.7306 17.3978 19.5534C17.4591 19.3761 17.4646 19.1844 17.4136 19.0039L15.736 13.1336L19.8966 9.38944C20.0298 9.26946 20.125 9.11304 20.1703 8.93955C20.2156 8.76605 20.209 8.58308 20.1515 8.41327C20.0939 8.24345 19.9878 8.09424 19.8463 7.98408C19.7048 7.87392 19.5342 7.80764 19.3554 7.79345L14.1263 7.37703L11.8634 2.36801C11.7913 2.20672 11.674 2.06976 11.5257 1.97366C11.3774 1.87755 11.2045 1.82642 11.0278 1.82642C10.8511 1.82642 10.6782 1.87755 10.5299 1.97366C10.3817 2.06976 10.2644 2.20672 10.1922 2.36801L7.92942 7.37703L2.70026 7.79254C2.52457 7.80645 2.35661 7.87069 2.21647 7.97757C2.07634 8.08445 1.96996 8.22943 1.91006 8.39518C1.85017 8.56094 1.83929 8.74044 1.87874 8.91221C1.91819 9.08398 2.00629 9.24074 2.1325 9.36376L5.99772 13.1308ZM8.61459 9.16288C8.77831 9.14998 8.93555 9.09328 9.06982 8.99871C9.20408 8.90414 9.31044 8.77519 9.37773 8.62538L11.0278 4.97387L12.6779 8.62538C12.7452 8.77519 12.8516 8.90414 12.9859 8.99871C13.1201 9.09328 13.2774 9.14998 13.4411 9.16288L17.0843 9.45181L14.0841 12.1521C13.8236 12.387 13.7199 12.7484 13.8153 13.0859L14.9646 17.108L11.5378 14.8231C11.3874 14.7222 11.2104 14.6683 11.0292 14.6683C10.8481 14.6683 10.671 14.7222 10.5206 14.8231L6.93972 17.2107L7.90282 13.0409C7.93813 12.8876 7.93339 12.7277 7.88905 12.5767C7.84472 12.4257 7.76228 12.2887 7.64966 12.1787L4.8631 9.4619L8.61459 9.16288Z" fill="#F3CD03"/>
</svg>
