<svg width="23" height="22" viewBox="0 0 23 22" fill="none" xmlns="http://www.w3.org/2000/svg">
<path d="M21.0967 8.41243C21.039 8.24262 20.9329 8.09341 20.7914 7.98322C20.65 7.87303 20.4793 7.80669 20.3005 7.79238L15.0714 7.37688L12.8086 2.36786C12.7365 2.20653 12.6193 2.0695 12.4711 1.97332C12.3229 1.87714 12.15 1.8259 11.9733 1.82581C11.7966 1.82571 11.6236 1.87675 11.4753 1.97277C11.327 2.0688 11.2096 2.20569 11.1374 2.36694L8.87455 7.37688L3.6454 7.79238C3.46971 7.8063 3.30175 7.87054 3.16161 7.97742C3.02147 8.08429 2.91509 8.22928 2.8552 8.39503C2.7953 8.56079 2.78443 8.74028 2.82388 8.91205C2.86332 9.08383 2.95142 9.24059 3.07763 9.36361L6.94194 13.1307L5.57526 19.0487C5.53377 19.2278 5.54707 19.4153 5.61344 19.5868C5.67981 19.7583 5.79619 19.9058 5.94748 20.0103C6.09877 20.1149 6.27797 20.1715 6.46185 20.1729C6.64572 20.1743 6.82577 20.1204 6.97863 20.0182L11.973 16.6886L16.9673 20.0182C17.1235 20.1219 17.3078 20.1753 17.4953 20.1712C17.6828 20.1671 17.8645 20.1057 18.0161 19.9952C18.1676 19.8847 18.2817 19.7305 18.3429 19.5532C18.4042 19.376 18.4097 19.1842 18.3588 19.0037L16.6811 13.1334L20.8417 9.38929C21.1141 9.14347 21.2141 8.76007 21.0967 8.41243Z" fill="#F3CD03"/>
</svg>
